<svg version="1.1" id="Capa_1" xmlns="http://www.w3.org/2000/svg" xmlns:xlink="http://www.w3.org/1999/xlink" x="0px" y="0px"
	 viewBox="0 0 225.36 225.36" style="enable-background:new 0 0 225.36 225.36;" xml:space="preserve">
<path d="M212.315,138.668h-0.016c0,0.062,0.004,0.123,0.004,0.185c0,22.994-18.641,41.635-41.635,41.635
	c-22.994,0-41.635-18.641-41.635-41.635c0-22.994,18.641-41.634,41.635-41.634c2.112,0,4.186,0.16,6.213,0.464V50.721L96.27,80.258
	v100.931h-0.042c0.051,0.84,0.085,1.686,0.085,2.538c0,22.992-18.639,41.634-41.633,41.634c-22.994,0-41.635-18.642-41.635-41.634
	c0-22.994,18.641-41.636,41.635-41.636c2.092,0,4.147,0.158,6.156,0.456V55.504L212.315,0V138.668z"/>
</svg>